<svg width="392" height="75" viewBox="0 0 392 75" fill="none" xmlns="http://www.w3.org/2000/svg">
<rect width="392" height="75" fill="white"/>
<path d="M45.24 51.14C41.24 49.06 39.28 44.14 39.24 38.1C39.24 28.62 44.76 19.74 52.36 18.02L53.08 14.7C43.72 15.14 35.4 25.98 35.4 38.38C35.4 46.58 39.32 53.1 44.56 54.3L45.24 51.14ZM61.7844 48.9C64.3844 48.9 66.5844 47.7 67.7444 46.06L67.2644 48.5H70.9844L76.9444 20.5H73.1044L70.7044 32.1C69.5444 29.54 66.9844 28.1 63.9844 28.1C58.9044 28.1 53.9444 32.78 53.9444 39.9C53.9444 45.82 57.6244 48.9 61.7844 48.9ZM62.7444 45.78C59.7844 45.78 57.7444 43.7 57.7444 39.7C57.7444 34.66 60.9444 31.22 64.4244 31.22C67.1444 31.22 69.3844 33.22 69.3844 37.06C69.3844 41.3 66.9444 45.78 62.7444 45.78ZM93.8088 28.3C90.3288 28.3 87.8888 29.86 86.6888 32.1L87.4488 28.5H83.6888L79.4488 48.5H83.2488L85.2488 39.1C86.3288 34.06 89.1688 31.7 92.9288 31.7H97.4488L98.1688 28.3H93.8088ZM109.633 48.9C112.233 48.9 114.433 47.7 115.593 46.1L115.113 48.5H118.833L123.073 28.5H119.273L118.513 32.22C117.393 29.58 114.793 28.1 111.793 28.1C106.673 28.1 101.793 32.78 101.793 39.9C101.793 45.82 105.473 48.9 109.633 48.9ZM110.633 45.78C107.673 45.78 105.593 43.7 105.593 39.7C105.593 34.7 108.713 31.22 112.193 31.22C114.913 31.22 117.233 33.18 117.233 36.94C117.233 41.26 114.713 45.78 110.633 45.78ZM132.538 57.22C138.698 57.22 141.978 54.02 143.018 49.1L147.418 28.5H143.618L142.858 32.18C142.138 30.34 139.978 28.1 136.058 28.1C130.938 28.1 126.258 32.54 126.258 39.78C126.258 46.22 130.578 48.5 134.138 48.5C136.498 48.5 138.658 47.42 139.978 45.86L139.418 48.26C138.578 51.86 136.578 54.06 132.978 54.06H132.578C130.018 54.06 128.258 52.94 127.938 51.1H124.138C124.538 55.34 128.218 57.22 132.538 57.22ZM134.618 45.3C132.258 45.3 130.058 43.46 130.058 39.62C130.058 34.62 133.138 31.3 136.258 31.3H136.658C139.658 31.3 141.618 33.58 141.618 37.18C141.618 41.38 139.138 45.3 135.018 45.3H134.618ZM190.746 48.5L191.426 45.3H184.746C183.946 45.3 183.466 44.9 183.466 44.06C183.466 43.78 183.506 43.54 183.586 43.22L186.066 31.62H193.426L194.106 28.5H186.746L188.106 22.02H184.346L182.986 28.5H176.506L175.826 31.62H182.306L179.786 43.62C179.666 44.06 179.626 44.46 179.626 45.02C179.626 47.22 181.026 48.5 183.426 48.5H190.746ZM207.091 48.9C212.611 48.9 217.571 44.66 217.571 36.94C217.571 31.7 214.211 28.1 208.691 28.1C203.171 28.1 198.211 32.46 198.211 40.06C198.211 45.3 201.571 48.9 207.091 48.9ZM207.251 45.78C203.851 45.78 202.011 43.26 202.011 39.86C202.011 34.22 205.211 31.22 208.531 31.22C211.931 31.22 213.771 33.74 213.771 37.14C213.771 42.78 210.491 45.78 207.251 45.78ZM262.939 28.1C261.219 28.1 259.739 29.1 258.699 30.26C258.179 28.86 256.899 28.1 255.339 28.1C253.539 28.1 252.099 29.46 251.539 30.14L251.859 28.5H248.419L244.179 48.5H247.699L250.419 35.62C250.939 33.3 252.059 31.3 253.739 31.3H253.819C255.099 31.3 255.459 32.54 255.099 34.3L252.059 48.5H255.619L258.339 35.62C258.819 33.3 259.979 31.3 261.659 31.3H261.739C263.019 31.3 263.379 32.54 263.019 34.3L259.979 48.5H263.539L266.699 33.54C267.459 29.9 265.499 28.1 262.939 28.1ZM279.044 48.9C284.564 48.9 289.524 44.66 289.524 36.94C289.524 31.7 286.164 28.1 280.644 28.1C275.124 28.1 270.164 32.46 270.164 40.06C270.164 45.3 273.524 48.9 279.044 48.9ZM279.204 45.78C275.804 45.78 273.964 43.26 273.964 39.86C273.964 34.22 277.164 31.22 280.484 31.22C283.884 31.22 285.724 33.74 285.724 37.14C285.724 42.78 282.444 45.78 279.204 45.78ZM302.348 44.94L300.188 28.5H296.308L299.228 48.5H304.148L315.548 28.5H311.508L302.348 44.94ZM327.173 48.9C331.933 48.9 335.093 46.46 336.173 42.5H332.373C331.653 44.5 329.853 45.78 327.453 45.78C324.293 45.78 322.373 43.7 322.373 39.98V39.38H336.453C336.733 38.26 336.893 37.1 336.893 35.98C336.893 31.14 333.613 28.1 329.093 28.1C323.253 28.1 318.773 32.9 318.773 39.5C318.773 45.3 321.893 48.9 327.173 48.9ZM322.733 36.38C323.493 33.3 325.613 31.22 328.773 31.22C331.453 31.22 333.213 32.54 333.213 35.34C333.213 35.66 333.173 35.98 333.133 36.38H322.733ZM348.237 17.86C352.237 19.94 354.197 24.86 354.237 30.9C354.237 40.38 348.717 49.26 341.117 50.98L340.397 54.3C349.757 53.86 358.077 43.02 358.077 30.62C358.077 22.42 354.157 15.9 348.917 14.7L348.237 17.86Z" fill="#9B9B9B"/>
</svg>
