<svg width="720" height="96" viewBox="0 0 720 96" fill="none" xmlns="http://www.w3.org/2000/svg">
<rect width="720" height="96" fill="black"/>
<path d="M46.351 69V34.2H57.931V27H26.731V34.2H38.251V69H46.351Z" fill="white"/>
<path d="M81.0075 38.4C77.1075 38.4 73.7475 40.38 71.9475 43.38V27H64.1475V69H71.9475V52.32C71.9475 48.12 74.8275 44.7 78.4275 44.7H78.9075C81.9075 44.7 83.6475 46.8 83.6475 50.7V69H91.4475V49.8C91.4475 43.2 88.2075 38.4 81.0075 38.4Z" fill="white"/>
<path d="M126.944 53.64C126.944 44.94 122.384 38.4 113.384 38.4C104.504 38.4 98.9841 45 98.9841 54C98.9841 63.9 105.764 69.6 113.264 69.6C120.764 69.6 125.384 65.4 126.824 59.52H119.084C118.544 61.56 116.744 63.3 113.744 63.3H113.384C109.304 63.3 106.664 59.82 106.544 56.46H126.824C126.884 55.5 126.944 54.54 126.944 53.64ZM113.324 44.7C117.284 44.7 119.324 47.82 119.384 50.64H106.544C106.784 47.16 109.664 44.7 112.964 44.7H113.324Z" fill="white"/>
<path d="M184.497 69.6C194.397 69.6 198.537 63.42 199.137 55.2H191.037C190.437 59.7 188.277 62.4 184.557 62.4H184.437C179.337 62.4 176.097 57 176.097 48C176.097 39 179.337 33.6 184.437 33.6H184.557C188.277 33.6 190.557 36.42 191.037 40.8H199.137C198.537 32.88 194.397 26.4 184.497 26.4C173.577 26.4 167.997 35.1 167.997 48C167.997 60.9 173.577 69.6 184.497 69.6Z" fill="white"/>
<path d="M231.514 49.2C231.514 42.18 226.414 38.4 218.914 38.4C211.414 38.4 206.614 42.66 206.014 48.3H213.814C213.994 46.56 215.734 44.7 218.734 44.7H219.094C222.094 44.7 223.954 46.8 223.954 49.5V50.22L216.394 50.88C210.454 51.42 205.414 54.3 205.414 60.78C205.414 66.18 209.854 69.6 215.254 69.6C219.154 69.6 222.334 67.92 224.134 65.34C224.194 66.72 224.314 68.1 224.494 69H231.814C231.514 66.9 231.514 64.2 231.514 62.4V49.2ZM216.874 63.3C214.714 63.3 213.094 62.1 213.094 60.24C213.094 57.78 215.494 56.76 217.474 56.58L223.954 55.92V56.76C223.954 60.66 220.774 63.3 217.174 63.3H216.874Z" fill="white"/>
<path d="M248.53 69V52.32C248.53 48.12 251.41 44.7 255.01 44.7H255.49C258.49 44.7 260.23 46.8 260.23 50.7V69H268.03V49.8C268.03 43.2 264.79 38.4 257.59 38.4C253.69 38.4 250.33 40.38 248.53 43.38V39H240.73V69H248.53Z" fill="white"/>
<path d="M289.727 63.24L281.807 39H273.527L283.907 69H295.247L305.627 39H297.587L289.727 63.24Z" fill="white"/>
<path d="M337.463 49.2C337.463 42.18 332.363 38.4 324.863 38.4C317.363 38.4 312.563 42.66 311.963 48.3H319.763C319.943 46.56 321.683 44.7 324.683 44.7H325.043C328.043 44.7 329.903 46.8 329.903 49.5V50.22L322.343 50.88C316.403 51.42 311.363 54.3 311.363 60.78C311.363 66.18 315.803 69.6 321.203 69.6C325.103 69.6 328.283 67.92 330.083 65.34C330.143 66.72 330.263 68.1 330.443 69H337.763C337.463 66.9 337.463 64.2 337.463 62.4V49.2ZM322.823 63.3C320.663 63.3 319.043 62.1 319.043 60.24C319.043 57.78 321.443 56.76 323.423 56.58L329.903 55.92V56.76C329.903 60.66 326.723 63.3 323.123 63.3H322.823Z" fill="white"/>
<path d="M360.24 69.6C368.34 69.6 372.54 65.46 372.54 60.36C372.54 55.62 369.9 52.86 364.14 51.42L360.12 50.4C357.66 49.8 356.28 48.96 356.28 47.34C356.28 45.54 357.96 44.4 360.06 44.4H360.54C363.24 44.4 364.74 46.02 365.04 48.9H372.84C372.84 42.3 368.4 38.4 360.6 38.4C353.1 38.4 348.48 42.24 348.48 47.64C348.48 52.5 351.48 55.14 357.78 56.7L361.68 57.66C363.84 58.2 364.74 59.1 364.74 60.66C364.74 62.46 363.18 63.6 360.78 63.6H360.3C357.3 63.6 355.26 61.8 355.26 59.1H347.28C347.28 65.7 352.14 69.6 360.24 69.6Z" fill="white"/>
<path d="M430.813 69.6C439.813 69.6 445.813 63 445.813 54C445.813 45 439.813 38.4 430.813 38.4C421.813 38.4 415.813 45 415.813 54C415.813 63 421.813 69.6 430.813 69.6ZM430.573 63.3C426.373 63.3 423.673 59.88 423.673 54C423.673 48.12 426.373 44.7 430.573 44.7H431.053C435.253 44.7 437.953 48.12 437.953 54C437.953 59.88 435.253 63.3 431.053 63.3H430.573Z" fill="white"/>
<path d="M468.29 69V45.3H479.63V39H468.29V36.78C468.29 34.08 468.89 33.48 471.59 33.48H481.13V27H468.29C463.19 27 460.49 29.7 460.49 34.8V39H450.53V45.3H460.49V69H468.29Z" fill="white"/>
<path d="M539.463 69C547.263 69 552.663 64.14 552.663 57.84C552.663 52.14 549.063 48.6 544.683 47.7C548.763 46.5 551.763 42.96 551.763 37.86C551.763 31.86 546.963 27 538.863 27H523.263V69H539.463ZM531.363 34.2H537.663C541.563 34.2 543.663 35.88 543.663 39.18C543.663 42.48 541.563 44.22 537.663 44.22H531.363V34.2ZM531.363 51.18H538.263C542.163 51.18 544.563 52.86 544.563 56.46C544.563 60.06 542.163 61.8 538.263 61.8H531.363V51.18Z" fill="white"/>
<path d="M584.679 49.2C584.679 42.18 579.579 38.4 572.079 38.4C564.579 38.4 559.779 42.66 559.179 48.3H566.979C567.159 46.56 568.899 44.7 571.899 44.7H572.259C575.259 44.7 577.119 46.8 577.119 49.5V50.22L569.559 50.88C563.619 51.42 558.579 54.3 558.579 60.78C558.579 66.18 563.019 69.6 568.419 69.6C572.319 69.6 575.499 67.92 577.299 65.34C577.359 66.72 577.479 68.1 577.659 69H584.979C584.679 66.9 584.679 64.2 584.679 62.4V49.2ZM570.039 63.3C567.879 63.3 566.259 62.1 566.259 60.24C566.259 57.78 568.659 56.76 570.639 56.58L577.119 55.92V56.76C577.119 60.66 573.939 63.3 570.339 63.3H570.039Z" fill="white"/>
<path d="M593.296 27V69H601.096V65.1C602.296 67.2 605.536 69.6 609.736 69.6C618.436 69.6 623.056 62.1 623.056 54C623.056 45.9 618.436 38.4 609.736 38.4C605.536 38.4 602.296 40.8 601.096 42.9V27H593.296ZM608.416 44.7C612.316 44.7 615.256 48.24 615.256 53.94C615.256 59.64 612.316 63.3 608.416 63.3H607.936C604.336 63.3 601.096 59.7 601.096 54C601.096 48.3 604.336 44.7 607.936 44.7H608.416Z" fill="white"/>
<path d="M656.693 53.64C656.693 44.94 652.133 38.4 643.133 38.4C634.253 38.4 628.733 45 628.733 54C628.733 63.9 635.513 69.6 643.013 69.6C650.513 69.6 655.133 65.4 656.573 59.52H648.833C648.293 61.56 646.493 63.3 643.493 63.3H643.133C639.053 63.3 636.413 59.82 636.293 56.46H656.573C656.633 55.5 656.693 54.54 656.693 53.64ZM643.073 44.7C647.033 44.7 649.073 47.82 649.133 50.64H636.293C636.533 47.16 639.413 44.7 642.713 44.7H643.073Z" fill="white"/>
<path d="M682.829 62.7V27H665.849V33.3H675.029V62.7H664.229V69H693.269V62.7H682.829Z" fill="white"/>
</svg>
